<?xml version="1.0" standalone="no"?>
<!DOCTYPE svg PUBLIC "-//W3C//DTD SVG 20010904//EN"
 "http://www.w3.org/TR/2001/REC-SVG-20010904/DTD/svg10.dtd">
<svg version="1.0" xmlns="http://www.w3.org/2000/svg"
 width="1000.000000pt" height="1000.000000pt" viewBox="0 0 1000.000000 1000.000000"
 preserveAspectRatio="xMidYMid meet">
<g transform="translate(0.000000,1000.000000) scale(0.100000,-0.100000)"
fill="#000000" stroke="none">
<path d="M8619 8171 c-15 -20 -104 -137 -200 -261 -297 -386 -339 -442 -339
-451 0 -34 18 -35 574 -34 475 0 548 2 556 15 6 8 8 20 6 27 -4 10 -146 198
-312 413 -27 36 -94 122 -147 192 -54 70 -101 129 -105 132 -4 2 -19 -13 -33
-33z"/>
<path d="M800 7625 c0 -2 -6 -35 -14 -72 -18 -83 -20 -96 -47 -243 -12 -63
-23 -128 -25 -145 -4 -34 -25 -172 -29 -195 -3 -14 -11 -79 -21 -162 -2 -21
-6 -55 -9 -75 -5 -43 -13 -115 -20 -188 -3 -27 -7 -75 -10 -105 -13 -128 -15
-149 -21 -235 -11 -162 -12 -178 -19 -335 -11 -229 -12 -477 -3 -544 20 -146
138 -271 298 -317 59 -16 380 -20 385 -5 2 6 6 144 10 306 3 162 8 324 9 360
2 36 7 142 11 235 4 94 8 188 10 210 2 22 7 94 10 160 4 66 8 136 10 155 2 19
6 80 10 135 4 54 10 108 14 118 7 19 119 -308 220 -638 132 -434 165 -530 226
-660 80 -167 191 -298 298 -349 73 -34 107 -39 260 -40 l129 -1 38 72 c22 39
60 120 85 180 26 59 52 122 60 138 26 61 77 208 181 525 242 740 262 797 264
755 1 -22 3 -47 5 -56 1 -8 6 -58 9 -110 4 -52 8 -116 11 -144 8 -87 14 -211
30 -610 2 -55 5 -170 6 -255 1 -93 8 -177 16 -210 32 -122 115 -213 233 -255
70 -25 111 -29 310 -29 l185 -1 -1 175 c-1 158 -9 430 -19 615 -6 127 -17 289
-20 330 -2 22 -7 81 -10 130 -3 50 -8 106 -10 125 -2 19 -7 69 -10 110 -3 41
-8 86 -10 100 -2 14 -7 59 -10 100 -3 41 -8 86 -10 100 -2 14 -6 52 -10 85 -9
86 -15 136 -20 165 -9 49 -17 95 -19 115 -6 39 -55 171 -82 220 -15 28 -55 77
-89 110 -105 104 -219 144 -431 151 l-131 4 -66 -70 c-130 -139 -189 -248
-363 -665 -171 -409 -233 -568 -299 -770 -33 -98 -62 -170 -64 -160 -5 29
-133 416 -170 513 -57 152 -292 735 -313 776 -96 189 -271 310 -523 361 -33 7
-435 16 -435 10z"/>
<path d="M8305 7162 l-31 -3 0 -1069 c1 -589 3 -1070 6 -1070 3 1 33 38 66 83
181 242 296 387 307 387 7 0 22 -15 34 -34 18 -28 118 -160 197 -258 11 -15
46 -61 76 -102 30 -42 58 -76 61 -76 3 0 5 424 5 943 -1 915 -2 944 -21 996
-43 117 -155 196 -283 200 -109 5 -385 6 -417 3z"/>
<path d="M5187 7144 c-226 -36 -422 -136 -579 -295 -159 -163 -260 -364 -309
-614 -20 -105 -18 -370 4 -475 30 -139 89 -285 150 -374 33 -47 119 -148 147
-172 14 -12 41 -35 60 -52 118 -104 361 -199 557 -219 124 -13 393 -6 453 11
8 3 32 7 54 11 60 8 186 53 246 88 107 60 203 181 226 283 11 50 13 274 2 274
-5 0 -42 -15 -81 -34 -71 -34 -156 -60 -232 -71 -22 -3 -45 -8 -52 -10 -46
-15 -336 -23 -444 -12 -208 22 -346 121 -382 277 l-6 25 247 0 c366 1 546 15
695 56 40 10 77 20 82 22 46 12 151 75 192 115 93 91 129 205 119 382 -7 134
-24 205 -75 315 -52 111 -129 206 -231 282 -115 86 -260 147 -425 179 -110 21
-313 25 -418 8z m278 -540 c108 -24 189 -98 200 -184 6 -46 -13 -96 -42 -115
-58 -39 -121 -47 -386 -52 l-259 -5 6 38 c22 139 97 249 201 295 73 32 191 42
280 23z"/>
<path d="M7267 7141 c-279 -61 -471 -249 -548 -536 -20 -77 -21 -102 -23 -617
-2 -599 3 -660 53 -763 82 -166 212 -227 491 -229 l155 -1 5 685 c5 627 7 689
23 731 25 64 79 124 135 150 65 30 230 38 322 14 36 -9 75 -19 88 -22 l22 -5
0 169 c0 170 0 170 -31 231 -68 137 -209 200 -464 208 -112 3 -158 0 -228 -15z"/>
<path d="M8608 5017 c-20 -29 -43 -61 -52 -72 -19 -24 -116 -149 -284 -370
-68 -88 -128 -167 -135 -175 -46 -56 -58 -80 -48 -97 9 -17 45 -18 558 -19
350 -1 553 2 561 9 6 5 12 15 12 21 0 7 -35 58 -77 113 -43 56 -161 210 -263
344 -102 133 -196 255 -210 270 l-25 28 -37 -52z"/>
<path d="M780 4572 l-25 -3 1 -1177 c1 -853 5 -1191 13 -1227 28 -117 111
-221 215 -270 86 -39 124 -45 319 -45 l187 0 0 812 0 813 38 -66 c22 -36 52
-86 69 -110 17 -24 65 -107 108 -184 42 -77 91 -165 108 -195 17 -30 38 -68
47 -85 177 -322 235 -423 242 -419 4 3 6 -1 3 -8 -5 -13 72 -137 134 -219 44
-56 144 -156 197 -196 59 -46 181 -105 241 -118 10 -2 38 -8 62 -13 24 -6 135
-11 248 -12 l203 -1 -2 1228 -3 1228 -26 55 c-33 71 -98 133 -177 171 -76 37
-106 41 -327 43 -149 1 -175 -1 -176 -14 0 -8 -1 -354 -1 -768 -1 -414 -4
-749 -8 -745 -4 4 -67 125 -140 268 -73 143 -156 305 -185 360 -29 55 -85 165
-125 245 -40 80 -89 170 -108 200 -163 261 -369 404 -632 439 -78 11 -441 20
-500 13z"/>
<path d="M4467 4084 c-1 -1 -47 -5 -102 -9 -55 -4 -102 -8 -105 -10 -3 -2 -26
-6 -50 -10 -78 -11 -212 -55 -291 -96 -133 -69 -242 -187 -279 -304 -15 -44
-22 -363 -9 -371 5 -2 39 20 76 50 84 69 184 119 288 145 110 28 155 32 340
35 360 6 467 -55 453 -257 l-3 -49 -155 -3 c-177 -3 -257 -10 -385 -31 -367
-61 -589 -216 -666 -464 -26 -84 -30 -115 -30 -233 -1 -208 80 -363 261 -499
95 -72 280 -142 453 -172 90 -15 382 -19 482 -6 33 5 80 11 105 14 25 3 82 14
126 25 331 81 490 292 532 706 9 91 9 692 0 770 -23 197 -117 399 -237 516
-110 105 -284 191 -456 225 -11 2 -30 6 -43 8 -48 10 -298 26 -305 20z m338
-1467 c-3 -142 -19 -194 -76 -241 -50 -43 -94 -57 -173 -59 -199 -4 -296 65
-296 211 0 23 6 57 14 76 15 36 81 96 107 96 8 0 19 3 23 8 15 15 125 28 263
31 l141 2 -3 -124z"/>
<path d="M5725 3968 c9 -68 67 -336 99 -453 56 -206 130 -426 225 -665 64
-161 250 -546 295 -613 14 -21 26 -40 26 -43 0 -5 71 -115 80 -124 3 -3 18
-22 33 -43 78 -104 187 -177 296 -197 29 -5 116 -10 192 -10 l139 0 45 58
c179 226 423 670 597 1087 28 66 56 134 64 150 22 50 94 265 114 344 29 108
35 154 35 261 0 84 -3 102 -28 150 -32 66 -89 111 -166 134 -42 12 -101 16
-263 16 -114 0 -207 -3 -206 -7 2 -7 -7 -59 -28 -163 -51 -264 -164 -659 -261
-915 -49 -128 -110 -265 -119 -265 -3 0 -20 33 -39 74 -111 244 -247 639 -300
876 -31 138 -35 148 -71 202 -43 64 -93 110 -154 142 -93 49 -133 55 -380 56
l-232 1 7 -53z"/>
<path d="M8277 4013 c-2 -5 -3 -366 -2 -803 2 -863 3 -881 59 -1019 68 -169
216 -293 411 -347 85 -24 346 -28 418 -7 78 23 145 63 183 109 55 67 65 110
67 284 l2 154 -92 2 c-162 4 -260 51 -278 134 -4 16 -10 30 -13 30 -4 0 -7
331 -6 735 l0 735 -372 0 c-205 0 -375 -3 -377 -7z"/>
</g>
</svg>
