<?xml version="1.0" standalone="no"?>
<!DOCTYPE svg PUBLIC "-//W3C//DTD SVG 20010904//EN"
 "http://www.w3.org/TR/2001/REC-SVG-20010904/DTD/svg10.dtd">
<svg version="1.0" xmlns="http://www.w3.org/2000/svg"
 width="512.000000pt" height="512.000000pt" viewBox="0 0 512.000000 512.000000"
 preserveAspectRatio="xMidYMid meet">
<metadata>
Created by potrace 1.14, written by Peter Selinger 2001-2017
</metadata>
<g transform="translate(0.000000,512.000000) scale(0.100000,-0.100000)"
fill="#000000" stroke="none">
<path d="M4193 3888 c-65 -128 -119 -239 -121 -245 -3 -10 51 -13 242 -13 135
0 246 2 246 5 0 9 -240 485 -245 485 -2 0 -57 -105 -122 -232z"/>
<path d="M581 3628 c-48 -254 -80 -582 -82 -823 0 -162 1 -173 39 -224 38 -52
91 -71 198 -71 l92 0 6 173 c10 272 26 550 32 577 8 30 16 8 106 -280 120
-389 182 -470 356 -470 l79 0 31 63 c46 93 81 187 173 462 l83 250 8 -90 c5
-49 12 -193 16 -320 9 -261 16 -287 85 -333 37 -25 50 -27 160 -30 l120 -4 -6
229 c-10 349 -48 737 -82 832 -21 62 -58 106 -112 138 -40 23 -61 28 -138 31
l-92 4 -37 -43 c-20 -24 -50 -66 -66 -94 -39 -68 -164 -364 -216 -510 -23 -67
-45 -113 -48 -105 -3 8 -24 68 -47 134 -59 171 -173 441 -205 487 -33 48 -102
95 -168 114 -30 9 -91 15 -157 15 l-107 0 -21 -112z"/>
<path d="M4130 2955 c0 -370 4 -585 9 -580 6 6 47 60 93 121 l83 111 85 -116
85 -116 3 500 c2 432 0 506 -13 541 -31 83 -88 111 -240 121 l-105 6 0 -588z"/>
<path d="M2611 3514 c-359 -96 -497 -610 -236 -883 109 -115 227 -155 430
-149 155 6 223 27 290 92 48 46 65 91 65 175 0 60 9 58 -95 20 -51 -19 -81
-23 -200 -23 -127 -1 -144 1 -187 22 -46 23 -69 47 -82 88 -7 21 -5 22 191 26
163 4 209 9 261 26 132 43 177 109 170 246 -10 186 -134 324 -326 365 -73 15
-216 13 -281 -5z m226 -261 c43 -20 69 -72 53 -104 -17 -31 -54 -40 -187 -46
-116 -6 -123 -5 -123 13 1 53 56 126 110 147 31 12 113 6 147 -10z"/>
<path d="M3610 3510 c-96 -35 -166 -107 -200 -203 -18 -52 -20 -82 -20 -349 0
-263 2 -297 19 -333 39 -85 100 -115 231 -115 l90 0 0 328 c0 310 1 329 20
360 36 59 111 74 234 46 l29 -7 -5 90 c-5 104 -23 140 -91 175 -62 32 -230 37
-307 8z"/>
<path d="M4227 2294 c-43 -58 -77 -108 -74 -110 2 -3 77 -3 166 -2 l162 3 -78
107 c-43 59 -82 107 -88 107 -5 0 -45 -47 -88 -105z"/>
<path d="M582 1732 l3 -578 28 -42 c41 -63 92 -84 215 -90 l102 -5 0 379 0
379 33 -50 c18 -28 73 -122 122 -210 161 -293 210 -365 285 -420 69 -51 121
-66 246 -72 l111 -6 6 258 c12 443 8 875 -7 918 -32 88 -89 116 -233 117
l-103 0 -2 -350 -3 -351 -114 223 c-131 256 -163 308 -217 361 -91 90 -173
117 -352 117 l-122 0 2 -578z"/>
<path d="M2185 2061 c-115 -29 -182 -71 -223 -140 -21 -37 -27 -61 -30 -133
-5 -95 2 -106 42 -69 65 61 216 98 351 87 125 -10 155 -30 155 -100 l0 -36
-64 0 c-202 0 -375 -54 -449 -141 -98 -114 -89 -308 18 -412 84 -81 197 -117
376 -117 153 0 214 11 297 51 105 51 150 133 172 309 21 177 9 368 -31 474
-43 116 -164 210 -303 235 -87 16 -230 12 -311 -8z m305 -676 c0 -103 -42
-141 -147 -133 -46 4 -61 10 -80 32 -31 36 -31 85 1 115 32 30 67 39 154 40
l72 1 0 -55z"/>
<path d="M4130 1671 c0 -359 2 -394 20 -453 39 -128 137 -198 284 -206 153 -8
228 36 241 143 4 30 4 70 1 88 -6 33 -8 34 -63 40 -63 7 -104 31 -114 68 -4
13 -7 178 -8 367 l-1 342 -180 0 -180 0 0 -389z"/>
<path d="M2920 2046 c0 -4 9 -50 21 -104 82 -379 283 -816 414 -897 43 -27 59
-30 141 -33 l92 -4 52 73 c65 94 165 275 225 409 117 261 154 440 104 504 -37
46 -68 56 -186 56 l-109 0 -27 -125 c-29 -134 -102 -368 -141 -456 l-24 -54
-22 50 c-39 87 -100 265 -126 364 -30 115 -47 147 -103 186 -42 29 -46 30
-177 33 -74 2 -134 1 -134 -2z"/>
</g>
</svg>
