<?xml version="1.0" standalone="no"?>
<!DOCTYPE svg PUBLIC "-//W3C//DTD SVG 20010904//EN"
 "http://www.w3.org/TR/2001/REC-SVG-20010904/DTD/svg10.dtd">
<svg version="1.0" xmlns="http://www.w3.org/2000/svg"
 width="1000.000000pt" height="1000.000000pt" viewBox="0 0 1000.000000 1000.000000"
 preserveAspectRatio="xMidYMid meet">
<metadata>
Created by potrace 1.14, written by Peter Selinger 2001-2017
</metadata>
<g transform="translate(0.000000,1000.000000) scale(0.100000,-0.100000)"
fill="#000000" stroke="none">
<path d="M8763 8283 c-28 -38 -110 -144 -182 -238 -364 -473 -363 -472 -351
-494 11 -21 14 -21 583 -21 582 0 597 1 597 36 0 9 -103 149 -233 317 -14 18
-96 124 -182 237 -87 113 -163 211 -169 218 -10 10 -23 -2 -63 -55z"/>
<path d="M619 7722 c-8 -21 -65 -311 -74 -375 -2 -16 -6 -40 -9 -55 -3 -15 -8
-43 -10 -62 -2 -19 -11 -84 -20 -145 -18 -123 -23 -157 -31 -230 -3 -27 -8
-66 -10 -85 -3 -19 -8 -62 -10 -95 -3 -33 -8 -76 -10 -95 -2 -19 -7 -64 -10
-100 -3 -36 -8 -85 -10 -110 -3 -25 -7 -79 -10 -120 -3 -41 -7 -106 -10 -145
-17 -245 -24 -711 -13 -775 20 -110 99 -217 203 -275 87 -49 138 -58 338 -60
l177 -2 1 131 c1 247 17 711 34 996 3 52 8 135 10 183 3 49 7 110 9 135 3 26
8 90 12 142 3 52 8 104 9 115 1 11 3 36 4 55 1 25 4 31 10 20 17 -29 151 -438
239 -730 103 -338 139 -448 177 -540 112 -270 241 -424 403 -483 46 -16 85
-20 204 -22 104 -2 151 1 158 10 13 16 113 219 140 285 12 30 28 69 35 85 43
99 144 398 387 1142 45 139 83 251 84 250 2 -1 5 -25 8 -53 2 -28 7 -75 10
-105 3 -30 8 -97 11 -149 3 -52 8 -124 10 -160 11 -163 24 -492 30 -770 2 -96
8 -197 14 -223 34 -145 124 -241 271 -288 56 -19 94 -22 270 -24 113 -1 210
-1 215 1 7 3 10 53 9 132 -2 160 -14 560 -19 629 -2 29 -6 103 -9 165 -3 62
-8 138 -10 168 -3 30 -7 96 -11 145 -3 50 -8 108 -10 130 -3 22 -7 76 -10 120
-3 44 -7 91 -10 105 -2 14 -7 59 -10 100 -3 41 -8 89 -10 105 -2 17 -7 57 -10
90 -3 33 -7 71 -10 85 -2 14 -6 50 -10 80 -29 260 -88 415 -204 531 -118 118
-241 159 -485 162 l-109 1 -63 -68 c-119 -129 -201 -271 -309 -531 -37 -88
-76 -179 -86 -202 -10 -23 -19 -44 -19 -47 0 -3 -11 -29 -24 -58 -103 -225
-306 -779 -306 -834 0 -28 -18 -4 -24 32 -21 119 -293 850 -463 1244 -66 152
-143 250 -259 326 -157 105 -293 135 -616 138 -148 1 -151 1 -159 -22z"/>
<path d="M5357 7254 c-1 -1 -38 -4 -82 -7 -96 -7 -244 -44 -347 -86 -212 -89
-422 -289 -532 -509 -69 -138 -116 -290 -132 -432 -62 -544 179 -1005 623
-1190 84 -35 232 -76 318 -87 114 -15 495 -6 525 12 4 2 17 6 31 8 105 20 245
77 313 129 95 72 165 178 182 278 11 67 12 254 0 262 -5 3 -35 -6 -66 -22 -60
-30 -166 -67 -215 -75 -16 -3 -41 -8 -55 -10 -117 -24 -435 -36 -520 -21 -19
4 -47 9 -63 12 -162 27 -286 131 -327 273 l-8 30 251 1 c423 1 566 13 747 61
135 36 208 74 280 148 86 87 122 184 123 330 5 463 -299 797 -796 876 -75 11
-243 24 -250 19z m169 -590 c105 -35 163 -101 171 -193 5 -51 3 -60 -21 -88
-49 -58 -149 -75 -456 -78 -218 -2 -241 0 -235 18 2 7 7 30 10 51 15 107 105
233 195 273 93 42 241 49 336 17z"/>
<path d="M7498 7255 c-2 -1 -28 -5 -58 -9 -352 -39 -609 -302 -657 -671 -9
-70 -8 -1095 1 -1179 8 -72 13 -89 53 -172 50 -106 168 -189 303 -214 75 -14
358 -22 365 -10 3 4 5 315 5 691 1 588 3 692 16 744 30 114 108 194 211 216
83 17 205 13 297 -11 44 -11 83 -20 88 -20 5 0 8 75 7 168 -1 138 -4 176 -20
218 -47 126 -185 214 -374 240 -46 6 -232 13 -237 9z"/>
<path d="M8426 7251 c-3 -6 0 -2222 3 -2229 0 -2 85 106 187 240 102 133 189
247 194 251 4 5 94 -104 200 -242 105 -138 193 -251 196 -251 2 0 4 503 4
1118 l0 1119 -390 0 c-215 0 -392 -3 -394 -6z"/>
<path d="M8660 4869 c-85 -111 -195 -255 -244 -318 -205 -268 -198 -258 -186
-280 11 -21 15 -21 583 -21 583 0 597 1 597 36 0 10 -121 173 -285 384 -19 25
-87 113 -150 195 -63 83 -125 163 -138 178 l-22 29 -155 -203z"/>
<path d="M581 4540 c-4 -8 -6 -568 -6 -1245 l2 -1230 23 -65 c50 -142 154
-236 304 -275 41 -11 111 -15 246 -15 l190 0 0 852 0 853 26 -50 c15 -28 50
-86 79 -130 44 -67 109 -182 245 -430 12 -22 29 -53 39 -70 10 -16 35 -61 56
-100 240 -443 309 -549 435 -676 132 -132 251 -200 408 -232 79 -17 481 -24
483 -10 0 4 2 568 3 1253 2 906 -1 1259 -9 1295 -29 126 -118 219 -256 265
-56 19 -88 22 -254 24 -104 1 -198 0 -207 -2 -17 -4 -18 -53 -20 -803 l-3
-798 -98 192 c-54 106 -143 280 -198 387 -55 107 -135 263 -177 345 -145 285
-235 402 -398 520 -86 63 -238 128 -327 140 -12 2 -47 6 -77 10 -30 4 -155 8
-278 9 -190 1 -225 -1 -231 -14z"/>
<path d="M4427 4044 c-1 -1 -33 -5 -72 -8 -315 -29 -526 -112 -661 -258 -103
-112 -125 -187 -122 -412 l3 -168 70 57 c134 108 310 175 500 191 53 4 346 5
365 1 8 -2 37 -7 65 -12 97 -16 163 -54 190 -112 22 -46 31 -182 12 -188 -6
-2 -91 -6 -187 -10 -187 -6 -223 -9 -340 -26 -388 -57 -638 -219 -720 -464
-32 -95 -33 -101 -36 -240 -4 -149 6 -201 62 -313 80 -163 268 -306 488 -372
165 -49 220 -55 471 -54 207 0 286 5 375 24 25 5 56 12 70 14 56 10 135 39
211 78 163 82 278 239 328 448 40 167 45 247 45 645 0 384 -6 444 -65 608
-117 330 -416 533 -829 563 -73 5 -220 10 -223 8z m373 -1414 c9 -15 2 -214
-9 -256 -32 -115 -119 -176 -254 -176 -171 0 -268 48 -296 149 -48 171 57 271
304 290 39 2 71 6 72 6 7 7 178 -5 183 -13z"/>
<path d="M5756 3971 c-2 -3 0 -27 5 -51 27 -137 42 -210 51 -255 40 -206 208
-728 313 -970 7 -16 27 -64 45 -105 54 -126 194 -400 255 -500 143 -236 234
-331 366 -381 55 -21 252 -38 365 -31 55 3 58 6 172 157 25 33 122 189 183
293 263 452 543 1124 585 1407 11 73 9 194 -4 241 -15 53 -62 117 -109 148
-66 44 -125 52 -356 52 l-212 -1 -12 -60 c-7 -33 -15 -72 -18 -88 -59 -307
-210 -830 -291 -1016 -13 -29 -24 -57 -24 -62 0 -5 -20 -50 -44 -99 l-43 -91
-16 33 c-144 307 -318 817 -353 1032 -16 102 -94 215 -188 274 -110 69 -149
76 -424 78 -133 1 -244 -1 -246 -5z"/>
<path d="M8426 3970 c-5 -10 2 -1675 7 -1705 29 -167 82 -284 167 -378 49 -53
181 -146 193 -135 2 1 10 -2 18 -9 8 -6 48 -21 89 -33 98 -29 356 -38 439 -16
144 39 242 127 267 239 8 32 11 315 5 325 -3 5 -57 12 -119 15 -145 7 -207 33
-250 105 l-27 47 -5 775 -5 776 -388 0 c-214 0 -390 -3 -391 -6z"/>
</g>
</svg>
