<?xml version="1.0" encoding="UTF-8"?>
<svg id="a" data-name="Layer 1" xmlns="http://www.w3.org/2000/svg" xmlns:xlink="http://www.w3.org/1999/xlink" viewBox="0 0 272.5213 53.2332">
  <defs>
    <linearGradient id="b" x1="169.7013" y1="41.4532" x2="169.7013" y2="52.3332" gradientUnits="userSpaceOnUse">
      <stop offset="0" stop-color="#1599ff"/>
      <stop offset=".0871" stop-color="#1799f5"/>
      <stop offset=".2314" stop-color="#1c9bdc"/>
      <stop offset=".2573" stop-color="#1e9cd7"/>
      <stop offset="1" stop-color="#09007f"/>
    </linearGradient>
    <linearGradient id="c" x1="146.8763" y1="45.5932" x2="146.8763" xlink:href="#b"/>
    <linearGradient id="d" x1="198.3313" y1="40.4932" x2="198.3313" y2="53.2332" xlink:href="#b"/>
    <linearGradient id="e" x1="232.9963" y1="42.7432" x2="232.9963" y2="52.8132" xlink:href="#b"/>
    <linearGradient id="f" x1="263.9813" y1="41.5432" x2="263.9813" y2="52.8132" xlink:href="#b"/>
  </defs>
  <g>
    <path d="M52.2286,52.1918c-3.6458,0-6.1693-2.0328-6.1693-6.3798,0-6.0991-1.0521-23.6952-1.8229-28.4627-.631,1.5422-1.5422,3.5054-2.2434,5.6786l-6.7301,20.6109c-1.1217,3.4352-2.5943,6.6599-3.9259,8.553h-2.5937c-3.1551,0-5.9593-2.4539-7.712-7.6413l-6.8699-20.2605c-.8416-2.4539-1.9632-5.3283-2.6644-7.0108-1.262,6.8705-2.103,26.1497-2.103,34.9127h-3.3651c-3.5756,0-6.0289-2.3136-6.0289-6.3798C0,35.0857,2.103,13.7041,3.8557,4.1697h2.0328c6.6599,0,11.3572,3.0142,13.1801,8.1319l6.6599,18.7885c1.472,4.0657,2.3136,6.9401,2.734,9.1133.3503-1.8223.841-3.2949,1.3322-4.9072l5.5383-17.0358c2.4533-7.6413,5.5383-12.4783,7.5009-14.0907h1.1217c5.3283,0,8.8337,3.3651,9.6045,9.9548.9117,7.5711,2.3136,28.4627,2.3136,38.0672h-3.6452Z" style="fill: #0c0243; stroke-width: 0px;"/>
    <path d="M74.1066,39.0101h-5.2798c.5996,4.0801,4.3198,6.6602,9.0596,6.6602,3.3599,0,7.3198-.6602,9.8994-3.0601h.3003v2.52c0,4.1396-2.8203,7.3193-11.6997,7.3193-8.0396,0-15.8994-6.3594-15.8994-16.2593,0-10.7993,6.5996-17.5791,15.8394-17.5791,6.7197,0,12.9595,4.7998,12.9595,12.5396,0,5.9395-4.5,7.8594-15.1792,7.8594ZM75.6066,25.3309c-3.8999,0-6.6001,3.1797-6.7798,6.8999l-.0601,1.0796h3.5996c7.6196,0,9.3599-.8398,9.3599-3.1196,0-3.2397-2.3999-4.8599-6.1196-4.8599Z" style="fill: #0c0243; stroke-width: 0px;"/>
    <path d="M113.8263,27.1908c-1.2002-.48-2.5801-.96-4.6802-.96-3.5996,0-5.5796,1.98-5.5796,6.8999v18.5991h-2.2197c-3.6001,0-5.8799-1.7998-5.8799-5.1597v-14.8794c0-6.48,3.4199-12.6597,11.9395-12.6597,4.98,0,6.7197,2.8198,6.7197,5.2798v2.8799h-.2998Z" style="fill: #0c0243; stroke-width: 0px;"/>
    <path d="M129.3058,52.0296c-6.2397,0-9.6597-3.5396-9.6597-10.0796v-21.8989h2.2798c3.5996,0,5.7598,1.9199,5.7598,6v15.1191c0,3.2397,1.3799,4.2598,4.9199,4.2598h1.5v1.7402c0,3.4795-1.3799,4.8594-4.7998,4.8594Z" style="fill: #0c0243; stroke-width: 0px;"/>
  </g>
  <g>
    <path d="M172.2613,10.9332h-5.04v23.52l-7.68-15c-2.82-5.58-6.84-8.52-12.9-8.52h-5.52v35.04c0,.88.15,1.68.41,2.38,3.05-.89,6.63-1.83,10.69-2.76v-18.16c.12.42.9,1.86,2.04,3.42l7.02,12.72c.03.06.06.11.09.17h.01c5.07-.91,10.63-1.71,16.64-2.29v-25.18c0-3.36-3.06-5.34-5.76-5.34Z" style="fill: #0c0243; stroke-width: 0px;"/>
    <path d="M178.0213,41.4532v10.88h-4.5c-4.64,0-8.45-2.01-12.14-8.59,5.07-.91,10.63-1.71,16.64-2.29Z" style="fill: url(#b); stroke-width: 0px;"/>
    <path d="M152.2213,45.5932v6.74h-4.68c-2.46,0-5.04-1.35-6.01-3.98,3.05-.89,6.63-1.83,10.69-2.76Z" style="fill: url(#c); stroke-width: 0px;"/>
    <path d="M198.3013,18.3732c-9.42,0-13.68,4.08-13.68,8.16v4.02h.3c2.34-2.16,4.6201-3.6,10.8-3.6,4.5,0,6.6.66,6.6,3.36v1.38h-1.62c-11.01,0-16.36,3.13-17.17,9.3,3.57-.25,7.27-.43,11.1-.5h.01c.74-1.16,2.52-1.72,5.64-1.72h2.28v1.74c3.94.1,7.47.35,10.68.68.08-1.05.12-2.17.12-3.38v-5.1c0-9.72-5.94-14.34-15.06-14.34Z" style="fill: #0c0243; stroke-width: 0px;"/>
    <path d="M213.2413,41.1932c-.74,9.27-4.93,12.04-15.72,12.04-6.36,0-14.1-3-14.1-10.5,0-.61.03-1.19.11-1.74,3.57-.25,7.27-.43,11.1-.5h.01c-.29.44-.42.96-.42,1.58,0,2.1,1.32,3.18,4.5,3.18,2.04,0,3.84-1.02,3.84-4.02v-.72c3.94.1,7.47.35,10.68.68Z" style="fill: url(#d); stroke-width: 0px;"/>
    <path d="M245.9413,19.3332h-5.46c-1.2,7.38-4.14,16.74-6.2401,20.64-1.5-2.82-4.44-10.62-5.46-15.9-.42-2.1-2.76-4.74-6.48-4.74h-5.94c1.1201,7.52,4.17,16.53,7.56,23.41,7.03,1.3,12.42,2.75,18.15,3.2,2.82-4.97,5.55-11.01,6.93-15.03.78-2.28,1.56-4.6801,1.56-7.08,0-2.76-1.74-4.5-4.62-4.5Z" style="fill: #0c0243; stroke-width: 0px;"/>
    <path d="M242.0713,45.9432c-1.6,2.81-3.22,5.29-4.65,6.87h-3.06c-3.78,0-5.58-1.8-7.5-4.8-.98-1.53-1.98-3.31-2.94-5.27,7.03,1.3,12.42,2.75,18.15,3.2Z" style="fill: url(#e); stroke-width: 0px;"/>
    <path d="M266.6413,41.3432c-.04-.31-.06-.65-.06-1.01v-12.12c0-6-2.1-7.86-8.58-7.86h-2.82v21.66c0,1.08.09,2.06.26,2.96,3.32-.71,7-1.82,11.24-3.4301-.02-.0699-.03-.1299-.04-.2Z" style="fill: #0c0243; stroke-width: 0px;"/>
    <path d="M272.5213,44.1732v3.36c0,3.96-3,5.28-6.54,5.28-5.22,0-9.47-2.23-10.54-7.84,3.32-.71,7-1.82,11.24-3.4301.36,1.98,1.76,2.63,4.46,2.63h1.38Z" style="fill: url(#f); stroke-width: 0px;"/>
  </g>
  <path d="M130.652,16.847l-12.0761-1.455c-.4189-.0505-.6382-.5241-.4057-.8761l8.1185-12.2958h0l4.9655,13.8723c.1422.3972-.1834.8052-.6022.7547Z" style="fill: #0a3f8c; stroke: #0a3f8c; stroke-miterlimit: 10; stroke-width: 2px;"/>
  <rect x="255.6265" y="2.6304" width="11" height="14" rx="2.4834" ry="2.4834" style="fill: #0a3f8c; stroke: #0a3f8c; stroke-miterlimit: 10; stroke-width: .75px;"/>
</svg>