<?xml version="1.0" encoding="UTF-8"?>
<svg id="Layer_1" data-name="Layer 1" xmlns="http://www.w3.org/2000/svg" xmlns:xlink="http://www.w3.org/1999/xlink" version="1.1" viewBox="0 0 274.1868 50.0408">
  <defs>
    <style>
      .cls-1 {
        fill: url(#linear-gradient);
      }

      .cls-1, .cls-2, .cls-3, .cls-4, .cls-5, .cls-6 {
        stroke-width: 0px;
      }

      .cls-2 {
        fill: #0c0243;
      }

      .cls-3 {
        fill: url(#linear-gradient-4);
      }

      .cls-4 {
        fill: url(#linear-gradient-2);
      }

      .cls-5 {
        fill: url(#linear-gradient-3);
      }

      .cls-6 {
        fill: url(#linear-gradient-5);
      }
    </style>
    <linearGradient id="linear-gradient" x1="171.3662" y1="38.0674" x2="171.3662" y2="48.9474" gradientUnits="userSpaceOnUse">
      <stop offset="0" stop-color="#1599ff"/>
      <stop offset=".0871" stop-color="#1799f5"/>
      <stop offset=".2314" stop-color="#1c9bdc"/>
      <stop offset=".2573" stop-color="#1e9cd7"/>
      <stop offset="1" stop-color="#09007f"/>
    </linearGradient>
    <linearGradient id="linear-gradient-2" x1="148.5412" y1="42.2074" x2="148.5412" xlink:href="#linear-gradient"/>
    <linearGradient id="linear-gradient-3" x1="199.9961" y1="37.1074" x2="199.9961" y2="49.8474" xlink:href="#linear-gradient"/>
    <linearGradient id="linear-gradient-4" x1="234.6611" y1="39.3574" x2="234.6611" y2="49.4274" xlink:href="#linear-gradient"/>
    <linearGradient id="linear-gradient-5" x1="265.6468" y1="38.16" x2="265.6468" y2="49.43" xlink:href="#linear-gradient"/>
  </defs>
  <g>
    <path class="cls-2" d="M173.9262,7.5474h-5.04v23.52l-7.68-15c-2.82-5.58-6.84-8.52-12.9-8.52h-5.52v35.04c0,.88.15,1.68.41,2.38,3.05-.89,6.63-1.83,10.69-2.76v-18.16c.12.42.9,1.86,2.04,3.42l7.02,12.72c.03.06.06.11.09.17h.01c5.07-.91,10.63-1.71,16.64-2.29V12.8874c0-3.36-3.06-5.34-5.76-5.34Z"/>
    <path class="cls-1" d="M179.6862,38.0674v10.88h-4.5c-4.64,0-8.45-2.01-12.14-8.59,5.07-.91,10.63-1.71,16.64-2.29Z"/>
    <path class="cls-4" d="M153.8862,42.2074v6.74h-4.68c-2.46,0-5.04-1.35-6.01-3.98,3.05-.89,6.63-1.83,10.69-2.76Z"/>
    <path class="cls-2" d="M199.9661,14.9874c-9.42,0-13.68,4.08-13.68,8.16v4.02h.3c2.34-2.16,4.6201-3.6,10.8-3.6,4.5,0,6.6.66,6.6,3.36v1.38h-1.62c-11.01,0-16.36,3.13-17.17,9.3,3.57-.25,7.27-.43,11.1-.5h.01c.74-1.16,2.52-1.72,5.64-1.72h2.28v1.74c3.94.1,7.47.35,10.68.68.08-1.05.12-2.17.12-3.38v-5.1c0-9.72-5.94-14.34-15.06-14.34Z"/>
    <path class="cls-5" d="M214.9061,37.8074c-.74,9.27-4.93,12.04-15.72,12.04-6.36,0-14.1-3-14.1-10.5,0-.61.03-1.19.11-1.74,3.57-.25,7.27-.43,11.1-.5h.01c-.29.44-.42.96-.42,1.58,0,2.1,1.32,3.18,4.5,3.18,2.04,0,3.84-1.02,3.84-4.02v-.72c3.94.1,7.47.35,10.68.68Z"/>
    <path class="cls-2" d="M247.6062,15.9474h-5.46c-1.2,7.38-4.14,16.74-6.2401,20.64-1.5-2.82-4.44-10.62-5.46-15.9-.42-2.1-2.76-4.74-6.48-4.74h-5.94c1.1201,7.52,4.17,16.53,7.56,23.41,7.03,1.3,12.42,2.75,18.15,3.2,2.82-4.97,5.55-11.01,6.93-15.03.78-2.28,1.56-4.6801,1.56-7.08,0-2.76-1.74-4.5-4.62-4.5Z"/>
    <path class="cls-3" d="M243.7362,42.5574c-1.6,2.81-3.22,5.29-4.65,6.87h-3.06c-3.78,0-5.58-1.8-7.5-4.8-.98-1.53-1.98-3.31-2.94-5.27,7.03,1.3,12.42,2.75,18.15,3.2Z"/>
    <path class="cls-2" d="M268.3469,38.16c-4.2401,1.61-7.92,2.72-11.2401,3.43-.17-.9-.2599-1.88-.2599-2.96V15.95h11.4v21c0,.36.02.7.06,1.01.01.07.02.13.04.2Z"/>
    <path class="cls-6" d="M274.1868,40.79v3.36c0,3.96-3,5.28-6.54,5.28-5.22,0-9.47-2.23-10.54-7.84,3.32-.71,7-1.82,11.2401-3.43.36,1.98,1.7599,2.63,4.46,2.63h1.38Z"/>
  </g>
  <path class="cls-2" d="M270.6368,11.95h-16.18c-.43,0-.68-.5-.41-.84l2.8-3.66,5.7-7.45,5.7,7.45,2.8,3.66c.26.34.02.84-.41.84Z"/>
  <g>
    <path class="cls-2" d="M47.0666,49.4271c-3.8271,0-6.6113-2.0879-6.6113-6.2637,0-3.5962-.3477-13.8618-.9863-19.7778l-5.5098,16.8198c-.8115,2.436-2.4941,6.7275-4.002,9.2217h-3.0742c-3.7695,0-6.7275-2.8418-9.2217-10.9619l-2.0293-6.6694c-.9863-3.3062-2.2041-6.8442-2.8418-8.5259-.6963,6.8438-1.2188,19.5454-1.2188,26.1572h-4.1177c-3.3643,0-6.438-2.3198-6.438-6.2637,0-11.4839,1.5659-25.3457,3.48-33.7554h3.8276c6.3799,0,9.6279,3.0161,11.0781,6.5537l3.1318,7.772c1.334,3.3638,3.0156,7.9458,3.8857,11.3096.8701-2.958,2.0879-6.4956,3.3066-9.3955l3.8271-9.1641c1.4502-3.4219,3.3643-5.8579,4.8145-7.0757h2.0293c5.8008,0,8.584,3.1899,9.3379,8.9316,1.0439,7.8301,2.0303,20.1255,2.0303,31.0874h-4.6982Z"/>
    <path class="cls-2" d="M72.9348,37.4213h-4.7559c.6377,3.1899,3.248,4.6982,7.8301,4.6982,5.1035,0,8.293-.812,10.0918-2.0303h.4053v2.5522c0,4.0596-3.3057,7.7139-12.4111,7.7139-11.0205,0-16.8203-7.4238-16.8203-16.2397,0-9.686,6.5547-17.5737,16.4141-17.5737,8.3516,0,14.8477,4.6978,14.8477,12.8179,0,6.3799-4.8135,8.0615-15.6016,8.0615ZM73.6887,24.7777c-3.8857,0-5.5098,2.4941-5.7998,5.5679h4.292c5.2197,0,6.1475-.812,6.1475-2.2041,0-1.624-1.4502-3.3638-4.6396-3.3638Z"/>
    <path class="cls-2" d="M113.2443,25.7636c-1.3916-.522-2.4355-.6377-3.8857-.6377-2.668,0-4.7559,1.334-4.7559,5.2197v19.0815h-3.0156c-4.7559,0-7.6562-2.2041-7.6562-7.54v-13.8613c0-6.438,4.3496-11.542,11.5996-11.542,5.5098,0,8.0615,2.2622,8.0615,5.2202v4.0596h-.3477Z"/>
  </g>
  <path class="cls-2" d="M134.5039,41.4008v3.36c0,3.96-3,5.28-6.54,5.28-5.22,0-9.47-2.23-10.54-7.84-.1699-.9-.26-1.88-.26-2.96v-22.68h11.4v21c0,.36.02.7.0599,1.01.01.07.02.13.04.2.3601,1.98,1.76,2.63,4.46,2.63h1.3801Z"/>
  <path class="cls-2" d="M130.9518,12.5642h-16.18c-.43,0-.68-.5-.41-.84l2.8-3.66,5.7-7.45,5.7,7.45,2.8,3.66c.26.34.02.84-.41.84Z"/>
</svg>